# xmcd
#
# Track frame offsets: 
#        150
#        14096
#        24531
#        34394
#        47114
#        59857
#        69585
#        81443
#        90773
#        102940
#        113890
#        126598
#        136438
#        145786
#        155900
#        166441
#        178236
#        190873
#        202975
#
# Disc length: 2884 seconds
#
# Revision: 0
# Processed by: cddbd v1.5.1PL2 Copyright (c) Steve Scherf et al.
# Submitted via: ExactAudioCopy v0.95b1
#
DISCID=210b4213
DTITLE=Skeeter Davies - Essenitial Skeeter Davies
DYEAR=1900
DGENRE=Country
TTITLE0=I Forgot More Than You'll Ever Know [The Davis Sisters]
TTITLE1=Set Him Free
TTITLE2=Am I That Easy To Forget
TTITLE3=The One You Slip Around With
TTITLE4=(I Can't Help You) I'm Falling Too
TTITLE5=No, Never
TTITLE6=My Last Date (With You)
TTITLE7=Optimistic
TTITLE8=The End Of The World
TTITLE9=Gonna Get Along Without Ya Now
TTITLE10=Where I Ought To Be
TTITLE11=I Can't Stay Mad At You
TTITLE12=I'm Saving My Love
TTITLE13=Silver Threads And Golden Needles
TTITLE14=Mine Is A Lonely Life
TTITLE15=Let Me Get Close To You
TTITLE16=Fuel To The Flame
TTITLE17=What Does It Take (To Keep A Man Like You Satisfied)
TTITLE18=Bus Fare To Kentucky
EXTD=
EXTT0=
EXTT1=
EXTT2=
EXTT3=
EXTT4=
EXTT5=
EXTT6=
EXTT7=
EXTT8=
EXTT9=
EXTT10=
EXTT11=
EXTT12=
EXTT13=
EXTT14=
EXTT15=
EXTT16=
EXTT17=
EXTT18=
PLAYORDER=
